<?xml version="1.0" encoding="utf-8"?>
<!-- Generator: Adobe Illustrator 21.0.0, SVG Export Plug-In . SVG Version: 6.00 Build 0)  -->
<!DOCTYPE svg PUBLIC "-//W3C//DTD SVG 1.1//EN" "http://www.w3.org/Graphics/SVG/1.1/DTD/svg11.dtd">
<svg version="1.1" id="Layer_1" xmlns="http://www.w3.org/2000/svg" xmlns:xlink="http://www.w3.org/1999/xlink" x="0px" y="0px"
	 viewBox="0 0 104 128" style="enable-background:new 0 0 104 128;" xml:space="preserve">
<style type="text/css">
	.st0{fill:#D2D5D5;}
	.st1{fill:#FFFFFF;}
	.st2{fill:#D13239;}
	.st3{fill:none;stroke:#000000;stroke-width:0.202;stroke-miterlimit:10;}
</style>
<g>
	<g>
		<path class="st0" d="M22.5,9.5C43.7-6,73.7,1.4,85.6,11.8c4.8,4.2,8.2,9.8,9.1,20.6c0.3,3.3,3.3,4.9,3.6,8.7
			c0,0.3,0.1,0.9,0.1,1.2c0,0,4.5,0,4.2,0.3c-2.2,2.3-4.4,3.3-4.4,3.9c0,1.9-0.1,3.3-0.4,4c0,0-0.4-0.3-0.6,0
			c-0.5,0.8-1.7,1.6-2.4,2.1c0,0,0.9,1.3,2.5,3.5c0.6,0.8,0.9,1.2,1.7,2.1c5.8,6.1-1.2,7.4-1.4,10.8c0,0.5,4.2,3.5,5.1,4.7
			c0.4,0.5,0.7,0.6-2.1,6.2c-0.6,1.2-2.1,4.2-3.9,7.7c0,0,0.1,0.9,1.4,2.4c1.9,2.3,5.4,3.8,5.2,8.5l-1,8.5c-1.1,1.4-4.7,1.5-4.7,1.5
			c-2.5-0.2-5.6,0.2-8.3,0.4c-3.9,0.2-8-0.4-8-0.4l-19.1,18.4l-2.1,0.7c-4.3,0.3-14-0.9-23.5-3.4l-5.7-1.6
			c-9.4-3.4-19.6-9.1-18.9-15.1c3.1-25-1.5-27.1-1.5-27.1c-4.8-4.6-3.7-6.4-5.7-9.4c-4.8-7.4-6.5-19.2-0.1-33.2
			C4.7,37.6,8.9,19.4,22.5,9.5z"/>
		<path d="M51.4,0.6c14,0,27.3,5.1,34.3,11.2c4.8,4.2,8.2,9.8,9.1,20.6c0.3,3.3,3.3,4.9,3.6,8.7c0,0.3,0.1,0.9,0.1,1.2
			c0,0,4.5,0,4.2,0.3c-2.2,2.3-4.4,3.3-4.4,3.9c0,1.9-0.1,3.3-0.4,4c0,0-0.2-0.2-0.4-0.2c-0.1,0-0.2,0-0.2,0.1
			c-0.5,0.8-1.7,1.6-2.4,2.1c0,0,0.9,1.3,2.5,3.5c0.6,0.8,0.9,1.2,1.7,2.1c5.8,6.1-1.2,7.4-1.4,10.8c0,0.5,4.2,3.5,5.1,4.7
			c0.4,0.5,0.7,0.6-2.1,6.2c-0.6,1.2-2.1,4.2-3.9,7.7c0,0,0.1,0.9,1.4,2.4c1.9,2.3,5.4,3.8,5.2,8.5l-1,8.5c-1.1,1.4-4.7,1.5-4.7,1.5
			c-0.4,0-0.9,0-1.4,0c-2.2,0-4.7,0.3-6.9,0.4c-0.5,0-1.1,0-1.6,0c-3.3,0-6.4-0.4-6.4-0.4l-19.1,18.4l-2.1,0.7c-0.4,0-0.9,0-1.4,0
			c-4.7,0-13.5-1.2-22.1-3.4l-5.7-1.6c-9.4-3.4-19.6-9.1-18.9-15.1c3.1-25-1.5-27.1-1.5-27.1c-4.8-4.6-3.7-6.4-5.7-9.4
			c-4.8-7.4-6.5-19.2-0.1-33.2c0,0,4.2-18.2,17.7-28.1C31.2,3.1,41.5,0.6,51.4,0.6 M51.4,0v0.6V0L51.4,0C40.3,0,30.2,3.1,22.1,9
			C9,18.7,4.5,36.2,4.2,37.4c-5.6,12.6-5.6,24.9,0.2,33.7c0.6,1,0.9,1.8,1.2,2.7c0.6,1.7,1.3,3.7,4.5,6.8l0.1,0.1l0.1,0
			c0,0,4.1,2.7,1.2,26.4c-1,7.8,14.5,14,19.2,15.8l5.7,1.6c9.2,2.4,17.8,3.5,22.3,3.5c0.5,0,1,0,1.4,0l0.1,0l0.1,0l2.1-0.7l0.1,0
			l0.1-0.1l18.9-18.2c0.8,0.1,3.4,0.4,6.2,0.4c0.6,0,1.1,0,1.7,0c0.9,0,1.8-0.1,2.6-0.2c1.4-0.1,2.9-0.2,4.3-0.2c0.5,0,0.9,0,1.3,0
			l0,0l0,0c0.4,0,4-0.2,5.1-1.7l0.1-0.1l0-0.2l1-8.5c0.2-3.8-1.8-5.7-3.7-7.3c-0.6-0.5-1.2-1-1.6-1.6c-0.8-1-1.1-1.7-1.2-1.9
			c1.7-3.2,3.2-6.1,3.9-7.5c2.7-5.6,2.7-6,2-6.8c-0.5-0.7-1.7-1.6-2.9-2.6c-0.8-0.7-1.9-1.6-2.2-1.9c0.1-0.9,0.8-1.6,1.6-2.5
			c1.7-1.9,3.8-4.2-0.4-8.6c-0.8-0.8-1.1-1.2-1.6-2c-1-1.4-1.8-2.5-2.2-3c0.6-0.5,1.4-1,1.9-1.7l0.5,0.4l0.3-0.7
			c0.3-0.8,0.4-2.2,0.4-4.1c0.1-0.2,0.6-0.5,1-0.8c0.9-0.6,2.1-1.5,3.3-2.8l0.3-0.3l-0.1-0.4c-0.2-0.4-0.3-0.6-4.2-0.6
			c0-0.2,0-0.3,0-0.5l0-0.2c-0.1-2.1-1.1-3.7-2-5c-0.8-1.2-1.5-2.3-1.6-3.7c-0.8-9.7-3.6-16-9.3-21C79.6,5.7,66.3,0,51.4,0L51.4,0z"
			/>
	</g>
	<path class="st1" d="M95.3,34.1c0.9,2.3,3,3.9,3.2,7c0,0.3,0.1,0.9,0.1,1.2c-3.6,0-6.2,2.4-6.2,2.4c0.7,1.3-0.5,3.6-0.5,3.6
		c1.2,1.5,3.1,4.2,3.1,4.2s0.9,1.3,2.5,3.5c0.6,0.8,0.9,1.2,1.7,2.1c2.8,3,2.6,4.9,1.6,6.4v0c0,0-1.7,1.5-2.7,1.5
		c-1.2,0-5.5-2.1-5.5-2.1c-1.4-0.3-3.6-14.1-4.1-14.4c-1.7-0.9-3.3-4.5-3.7-4.8c-0.9-0.7-1.2-1.7-1.2-1.7c-0.1-0.2-9.3-2.8-9.3-2.8
		c-1.8-0.5-7.6-0.4-10,0l0,0c-0.1-0.9-0.7-3.9-2.4-6C85.1,28.8,91.8,31.3,95.3,34.1"/>
	<path class="st1" d="M94.8,32.4c-0.9-10.7-4-16.6-9.1-20.6C84,10.5,82,9.2,79.8,8C70,6.9,62.6,9.8,53.6,20.9
		c3.4,4.6,3.1,11.6,3.1,11.6c0.9-0.5,3-1.2,7.8,1.2c21.5-3.9,27.5-1.8,30.8,0.4C95,33.6,94.8,33,94.8,32.4z"/>
	<g>
		<path d="M102.3,106.8c-1.1,1.4-4.7,1.5-4.7,1.5c-2.5-0.2-5.6,0.2-8.3,0.4c-3.9,0.2-8-0.4-8-0.4l-19.1,18.4l-2.1,0.7l-8.1-25
			C41.5,98,35.8,90.5,34.2,86.6l-2.7,1.5l5.2,35.9l-5.7-1.6L29.4,110l-4.6-0.5l-1.3,9.7c-5.9-2.9-11.9-7-11.3-11.9
			c3-24.2-1.5-27.1-1.5-27.1c-4.8-4.6-3.7-6.4-5.7-9.4C1.2,65-0.8,56.7,1.7,46.4c1.2-4.9,3.1-8.8,3.1-8.8c2.4-2.3,8.6-0.7,8.6-0.7
			c2.4,9,5.2,11.8,5.2,11.8c-11.1,8.7,8,37.8,14.8,32.5c0.8-0.6,4.1-0.8,4-0.4c-3.2,14.6,29.1,24.1,32.8,22.9
			c3.7-1.3,7.6-3.3,7.6-3.3c4.6,0.9,18.7,6.4,18.7,6.4C98.4,107.5,102.3,106.8,102.3,106.8z"/>
		<path d="M96.5,76.7c-0.7-0.1-5.1-1-6.5-0.6c-6.7,1.9-12.5,5.7-17,9.7l1.2,1.2c1.7-1.5,6.1-1.7,6.1-1.7c1.3,1.6,2.9,4.2,3.7,5
			l3.8-2.4c4.7-1.5,9.1-0.4,9.1-0.4c1.9-3.5,3.4-6.6,3.9-7.7c0.6-1.2,1.4-2.8,1.7-3.6C102.9,75.1,99.5,77.1,96.5,76.7z M97.8,84.6
			c0,0-8.2,1.1-14.3-0.1c-0.4-0.1,2.1-3,3.5-3.9l9.6,0.3C97,81,97.5,82.7,97.8,84.6z"/>
		<path d="M86.2,69.7c-0.1,0.1-4.4-0.9-6-4c-0.3-0.5,3.3,2.8,4,1.6c0,0,0-1.3,0.3-1.9c1.5-3.2,6.4-1.9,7.8-1.5c0,0,4.3,2.1,5.5,2.1
			c1,0,2.7-1.5,2.7-1.5c-1,1.5-2.8,2.7-2.9,4.4l-1.5-1.1c0,0-2.1,1.3-2.7,1c-1.2-0.7-3.1-1.6-4-1.5C87.7,67.5,86.2,69.7,86.2,69.7z"
			/>
		<path d="M91.9,48.4c0,0,1.2-2.3,0.5-3.6c0,0,2.6-2.7,6.2-2.7c1.6,0,4.5,0.3,4.2,0.6c-2.2,2.3-3.8,3.2-4.3,3.5
			c-1,0.7-3.2,0.4-4.2,1c-0.8,0.5-0.8,2-0.8,2c3.9,0.1,4.5,0.9,4.5,0.9c0,0.3-0.1,0.5-0.2,0.7c0,0-0.5-0.3-0.6-0.2
			c-0.6,0.9-1.8,1.6-2.5,2.1C94.8,52.5,93.1,49.9,91.9,48.4z"/>
		<path class="st1" d="M97.8,84.6c0,0-8.2,1.1-14.3-0.1c-0.4-0.1,2.1-3,3.5-3.9l9.6,0.3C97,81,97.5,82.7,97.8,84.6z"/>
	</g>
	<path class="st1" d="M86.3,69.7c-9.6,6.8-18.2,9.7-13.3,16.1c4.5-3.9,10.5-7.7,17.1-9.7c1.4-0.4,5.8,0.5,6.5,0.6
		c3,0.3,6.2-1.6,5.9-0.6c0.9-2.1,0.7-2.2,0.4-2.6c-1-1.2-5.2-4.2-5.1-4.7l-1.5-1.1c0,0-2.1,1.3-2.7,1c-1.2-0.7-3.1-1.6-4-1.5
		C87.8,67.5,86.3,69.7,86.3,69.7z"/>
	<path class="st1" d="M102.4,106.8c0,0-4,0.7-5.9-0.2c0,0-2-0.8-4.7-1.8c-4-4.6-8.3-6.6-7.8-14.5l3.8-2.4c4.7-1.5,9.1-0.4,9.1-0.4
		c0,0,0.1,0.9,1.4,2.4c1.9,2.3,5.5,3.8,5.2,8.5L102.4,106.8z"/>
	<path d="M78.8,60.7c2.7-5.9,8.7-12,8.7-12c-2.2-2.4-4-5.8-4-5.8c-10-4-15.4-7.7-21.2-10.3c-4-1.9-7.7,0.3-9.2,1.9
		c-1.2,8.9-8.8,15.7-18,15.8l-4.8-0.5c0,0,2.5,3.6,3.7,3.8c13.3,1.8,16.2,9.3,17.3,11.2c5.4,9.7,11.9,6.2,20.7,1.2
		c1-0.5,1.8-6.2,10.3,6.4l4-2.7C77.6,65.6,78.5,61.4,78.8,60.7z"/>
	<g>
		<circle class="st1" cx="67.8" cy="48.6" r="6.2"/>
		<path d="M67.8,54.9c-3.5,0-6.4-2.9-6.4-6.4c0-3.5,2.9-6.4,6.4-6.4c3.5,0,6.4,2.9,6.4,6.4C74.2,52.1,71.4,54.9,67.8,54.9z
			 M67.8,42.5c-3.4,0-6.1,2.7-6.1,6.1c0,3.4,2.7,6.1,6.1,6.1c3.4,0,6.1-2.7,6.1-6.1C73.9,45.2,71.2,42.5,67.8,42.5z"/>
	</g>
	<path d="M61.7,48.7l0-0.1h-0.2c0-0.1,0-0.4,6.4-0.4c6.4,0,6.4,0.2,6.4,0.4h-0.3h0.1L74,48.7c-0.2-0.1-2.6-0.2-6.2-0.2
		C64.3,48.5,61.9,48.6,61.7,48.7z"/>
	<g>
		<path d="M67.8,54.9v-0.3c2,0,3.6-2.7,3.6-6.1c0-3.4-1.6-6.1-3.6-6.1v-0.3c2.2,0,3.9,2.9,3.9,6.4C71.7,52.1,70,54.9,67.8,54.9z"/>
	</g>
	<g>
		<ellipse class="st2" cx="71" cy="48.6" rx="2.6" ry="4.1"/>
		<path d="M71,44.5c1.5,0,2.6,1.8,2.6,4.1c0,2.3-1.2,4.1-2.6,4.1c-1.5,0-2.6-1.8-2.6-4.1C68.4,46.3,69.5,44.5,71,44.5 M71,44.2
			c-1.6,0-2.9,2-2.9,4.4c0,2.4,1.3,4.4,2.9,4.4c1.6,0,2.9-2,2.9-4.4C73.9,46.1,72.6,44.2,71,44.2L71,44.2z"/>
	</g>
	<path class="st3" d="M17.3,51.9"/>
	<path d="M48.6,49.2l-0.4-0.5c5.2-4.1,8.1-10.2,8.1-16.7c0-11.7-9.6-21.3-21.3-21.3h-4.5c-0.1,0-7.3,0-13.5,3.3c0,0,0.1-0.7,0.3-0.8
		c6.2-3,13.1-3.1,13.1-3.1h4.5C47.1,10.2,56.9,20,57,32C57,38.8,53.9,45,48.6,49.2z"/>
	<rect x="58.1" y="69.7" width="1.1" height="24.8"/>
	<polygon points="35.4,62.8 33.1,63.2 34,51.6 36.2,52 	"/>
	<rect x="57.5" y="88" width="2.4" height="11.8"/>
	<rect x="67.6" y="67" transform="matrix(0.9806 -0.1962 0.1962 0.9806 -15.3726 14.9779)" width="0.6" height="36.1"/>
	<path d="M33.4,60.5c-1.2,13.4-1.2,25.7,5.8,33c5.5,5.8,30.8,14.3,42.2,14.6c0.1,0,4.4,0.8,4.9-1.2c1.1-4.2-1.3-13.6-2.3-16.8
		c-0.1-0.4-3.7-5-3.7-5c-1.6-0.2-5.2,0.5-6.1,1.7l-1.9,13.6c-4.6,0.6-18.5-3.1-23.5-8.8C47.2,89.8,43.3,80,47.9,68
		C49.1,64.8,33.7,57.1,33.4,60.5z"/>
	<g>
		<path class="st0" d="M40.9,69.9c-4.5-2-9.7-4.2-12.1-5l-0.1-3.3c2.5,0.8,8.2,3.1,12.8,5.2L40.9,69.9z"/>
		<path class="st0" d="M40.4,77.2c-4.5-2-8.7-3.8-11.1-4.6l-0.2-3.3c2.5,0.8,6.9,2.5,11.4,4.5L40.4,77.2z"/>
	</g>
	<g>
		<path class="st0" d="M35.1,13.8c10.1,0,18.2,8.1,18.2,18.2c0,10.1-8.1,18.2-18.2,18.3l-16.6-1.6c-1.7-1.2-5.2-10.3-5.2-11.8
			c0-3.5,10.9-19.9,13.9-21.3C29.9,14.3,32.6,13.8,35.1,13.8z"/>
		<path d="M35.1,50.6L35.1,50.6l-16.7-1.6l-0.1,0c-1.8-1.3-5.3-10.5-5.3-12c0-3.5,10.8-20,14.1-21.6c2.5-1.2,5.2-1.8,7.9-1.8
			c10.2,0,18.5,8.3,18.5,18.5C53.6,42.2,45.3,50.6,35.1,50.6L35.1,50.6z M18.6,48.4L35.1,50C45,50,53,41.9,53,32
			c0-9.9-8.1-17.9-17.9-17.9c-2.7,0-5.3,0.6-7.7,1.7c-3.1,1.5-13.7,17.8-13.7,21C13.6,38.1,17,47,18.6,48.4z"/>
	</g>
</g>
</svg>
